<?xml version="1.0" encoding="UTF-8"?>
<svg version="1.1" xmlns="http://www.w3.org/2000/svg"  width="175" height="198">
<path d="M0 0 C0.54914063 0.40605469 1.09828125 0.81210938 1.6640625 1.23046875 C7.65996176 5.94530583 12.68565229 12.19530926 15.1875 19.4375 C17.90746774 23.28297163 21.32612463 23.2431684 25.796875 24.171875 C36.28863783 26.88437954 44.53404311 34.7328362 49.9375 43.88671875 C55.95859625 55.8625021 56.64298101 69.31677525 53.046875 82.140625 C50.50139682 89.09319973 46.63791029 95.16750547 41 100 C40.44957031 100.49113281 39.89914063 100.98226562 39.33203125 101.48828125 C31.83542681 107.71741855 21.46337165 111.22819274 11.6875 111.0625 C9.8621875 111.0315625 9.8621875 111.0315625 8 111 C8.28609307 109.60301364 8.57916905 108.2074567 8.875 106.8125 C9.03742188 106.03519531 9.19984375 105.25789063 9.3671875 104.45703125 C10.67877502 99.36450934 10.67877502 99.36450934 12 97 C14.5390625 96.03125 14.5390625 96.03125 17.625 95.5 C26.37847778 93.57569903 30.95445944 91.0129321 35.9375 83.4375 C40.73567366 75.55712822 41.17140569 67.04765278 40 58 C37.8184527 50.77110896 34.36344517 45.37486855 28.125 41.0859375 C23.20720021 38.57279717 18.60741929 37.71065832 13.125 37.375 C11.97257812 37.30023438 10.82015625 37.22546875 9.6328125 37.1484375 C8.76398438 37.09945312 7.89515625 37.05046875 7 37 C6.79246094 36.24976563 6.58492188 35.49953125 6.37109375 34.7265625 C3.12564982 23.94462742 -1.9591105 14.69601129 -11.90625 8.88671875 C-18.80429859 5.23871228 -25.47822158 3.60733084 -33.25 3.625 C-34.36435425 3.62741699 -34.36435425 3.62741699 -35.5012207 3.62988281 C-45.09044855 3.84189132 -53.85097819 6.91902694 -60.7734375 13.75 C-69.57512608 23.25730919 -72.38006548 33.22710544 -72.125 46 C-72.11597656 46.87011719 -72.10695312 47.74023438 -72.09765625 48.63671875 C-72.07434619 50.7579342 -72.03848579 52.87900562 -72 55 C-72.78503906 55.15855469 -73.57007813 55.31710938 -74.37890625 55.48046875 C-83.5880325 57.49365383 -83.5880325 57.49365383 -91 63 C-94.20043217 68.76077791 -95.6987019 74.55230178 -94.3125 81.0625 C-92.56788902 87.07559253 -89.29493866 91.63049358 -84 95 C-77.96631053 96.82073889 -72.2786767 97.39352805 -66 97.625 C-65.12988281 97.66367188 -64.25976562 97.70234375 -63.36328125 97.7421875 C-61.24249514 97.83540887 -59.12127815 97.91874136 -57 98 C-57.01732178 96.6895874 -57.03464355 95.3791748 -57.05249023 94.02905273 C-57.05065714 89.47847562 -56.69447889 85.05037872 -56.16015625 80.53515625 C-56.03053749 79.3960807 -56.03053749 79.3960807 -55.89830017 78.23399353 C-55.71663732 76.6481442 -55.53249866 75.06257662 -55.34594727 73.47729492 C-55.06042709 71.04484008 -54.7845721 68.61142049 -54.50976562 66.17773438 C-54.33129621 64.63014284 -54.15227977 63.08261426 -53.97265625 61.53515625 C-53.89032242 60.80813004 -53.80798859 60.08110382 -53.72315979 59.33204651 C-53.11537783 54.23075565 -53.11537783 54.23075565 -52 52 C-38.22667436 52.54269897 -24.65617301 54.16687563 -11 56 C-9.60996431 59.78734361 -10.40410825 62.46791138 -11.43359375 66.296875 C-11.75263672 67.50214844 -12.07167969 68.70742187 -12.40039062 69.94921875 C-12.74263672 71.20347656 -13.08488281 72.45773438 -13.4375 73.75 C-13.94506836 75.65458984 -13.94506836 75.65458984 -14.46289062 77.59765625 C-15.30007827 80.73416209 -16.14608147 83.86801555 -17 87 C-15.79601562 87.19335938 -14.59203125 87.38671875 -13.3515625 87.5859375 C-11.77597123 87.84853605 -10.20045415 88.11158001 -8.625 88.375 C-7.8309375 88.50132813 -7.036875 88.62765625 -6.21875 88.7578125 C-5.45820312 88.88671875 -4.69765625 89.015625 -3.9140625 89.1484375 C-3.2123291 89.26364746 -2.5105957 89.37885742 -1.78759766 89.49755859 C0 90 0 90 2 92 C-5.16568702 107.61069497 -12.47455603 123.14036066 -20.01327515 138.57449341 C-23.68190396 146.08739511 -27.31215702 153.61246962 -30.80078125 161.2109375 C-31.25093094 162.19015167 -31.25093094 162.19015167 -31.71017456 163.18914795 C-33.12636812 166.27459858 -34.53280329 169.36382289 -35.92773438 172.45898438 C-36.42208984 173.54244141 -36.91644531 174.62589844 -37.42578125 175.7421875 C-37.85286377 176.6894873 -38.27994629 177.63678711 -38.7199707 178.61279297 C-39.9432471 180.89415796 -41.14711002 182.23740409 -43 184 C-42.3825686 167.67053718 -41.25948426 151.41128896 -39.9375 135.125 C-39.74900599 132.76825657 -39.56085322 130.41148583 -39.37304688 128.0546875 C-38.91927992 122.36947216 -38.46137132 116.68460303 -38 111 C-39.73902588 111.01571045 -39.73902588 111.01571045 -41.51318359 111.03173828 C-45.85559952 111.06821196 -50.19800218 111.09099914 -54.54052734 111.10986328 C-56.41229538 111.11985894 -58.28404805 111.13345997 -60.15576172 111.15087891 C-62.86169246 111.17541268 -65.56741499 111.18654768 -68.2734375 111.1953125 C-69.09677582 111.20563507 -69.92011414 111.21595764 -70.7684021 111.22659302 C-81.53118299 111.22862514 -91.56587742 109.3139862 -99.6875 101.875 C-107.59526805 93.49674689 -109.51093338 84.03942188 -109.265625 72.890625 C-108.53984219 62.26004152 -103.82142803 55.06962129 -96 48 C-91.625 45 -91.625 45 -88 45 C-87.97421875 44.21238281 -87.9484375 43.42476562 -87.921875 42.61328125 C-87.09354601 26.70559955 -82.05396744 13.5564205 -71 2 C-70.34 2 -69.68 2 -69 2 C-69 1.34 -69 0.68 -69 0 C-49.53440243 -15.07291847 -19.47171004 -14.94340538 0 0 Z " fill="white" transform="translate(117,14)"/>
</svg>
